<?xml version="1.0" encoding="utf-8"?>
<!-- Generator: Adobe Illustrator 17.1.0, SVG Export Plug-In . SVG Version: 6.00 Build 0)  -->
<!DOCTYPE svg PUBLIC "-//W3C//DTD SVG 1.1//EN" "http://www.w3.org/Graphics/SVG/1.1/DTD/svg11.dtd">
<svg version="1.1" id="Layer_1" xmlns="http://www.w3.org/2000/svg" xmlns:xlink="http://www.w3.org/1999/xlink" x="0px" y="0px"
	 width="1000px" height="1000px" viewBox="0 0 1000 1000" enable-background="new 0 0 1000 1000" xml:space="preserve">
<g>
	<polygon points="500,936.294 329.119,936.294 306.181,973.024 500,973.024 700.614,973.024 677.566,936.294 	"/>
	<path d="M741.344,23.668H500H265.086c-58.248,0-105.467,47.219-105.467,105.467v843.889h76.503l103.166-164.392
		c-24.046-5.369-47.576-20.062-65.247-40.91c-20.084-23.696-31.127-53.266-31.093-83.235V308.155
		c-0.018-16.5,3.32-32.705,9.921-48.166c6.436-15.075,15.637-28.662,27.345-40.383c24.657-24.682,57.76-38.274,93.21-38.271h0.109
		H500h3.638h129.665h0.109c35.262,0,68.228,13.572,92.825,38.215c11.706,11.729,20.904,25.323,27.338,40.405
		c6.605,15.483,9.938,31.707,9.907,48.173v376.316c0.053,30.004-10.979,59.579-31.065,83.276
		c-17.67,20.848-41.209,35.542-65.274,40.914l103.166,164.392h76.502V129.135C846.811,70.887,799.592,23.668,741.344,23.668z
		 M460.971,151.104c-16.044-0.058-29.117-13.131-29.15-29.142c0.033-16.243,13.106-29.324,29.15-29.15
		c16.202-0.174,29.266,12.906,29.142,29.15C490.238,137.973,477.165,151.045,460.971,151.104z M538.694,151.104
		c-16.185-0.058-29.258-13.131-29.15-29.142c-0.108-16.243,12.965-29.324,29.15-29.15c16.069-0.166,29.15,12.907,29.15,29.15
		C567.844,137.973,554.763,151.045,538.694,151.104z"/>
	<path d="M738.482,684.488v-376.36c0.1-53.031-44.561-101.793-105.07-101.793c-0.037,0-0.072,0-0.109,0H503.638H500H373.534
		c-0.033,0-0.076,0-0.109,0c-60.88-0.005-105.535,48.759-105.477,101.793v376.36c-0.058,51.552,40.272,93.8,80.669,100.506H500
		h157.813C698.251,778.279,738.573,736.04,738.482,684.488z M445.454,263.308H500h60.976c8.748,0,10.024,4.199,10.024,9.38v24.433
		c0,5.18-1.276,9.38-10.024,9.38H500h-54.546c-8.748,0-8.454-4.199-8.454-9.38v-24.433C437,267.507,436.706,263.308,445.454,263.308
		z M368.751,726.527c-24.39,0-44.163-19.772-44.163-44.163c0-24.39,19.772-44.162,44.163-44.162
		c24.39,0,44.162,19.772,44.162,44.162C412.914,706.754,393.141,726.527,368.751,726.527z M349.374,548.894
		c-23.299,0-42.187-18.887-42.187-42.187V396.814c0-23.299,18.888-42.187,42.187-42.187H500h157.056
		c23.299,0,42.187,18.888,42.187,42.187v109.894c0,23.299-18.888,42.187-42.187,42.187H500H349.374z M593.516,682.364
		c0-24.39,19.772-44.162,44.162-44.162c24.39,0,44.163,19.772,44.163,44.162c0,24.39-19.772,44.163-44.163,44.163
		C613.289,726.527,593.516,706.754,593.516,682.364z"/>
	<polygon points="500,848.265 384.092,848.265 360.733,885.67 500,885.67 645.801,885.67 622.33,848.265 503.215,848.265 	"/>
</g>
</svg>
